<svg width="102" height="134" viewBox="0 0 102 134" fill="none" xmlns="http://www.w3.org/2000/svg">
<path d="M102 0V82H92.3941L66.0305 44L60.4802 36L47.7266 17.6172H46.9261V82H37V0H46.6059L71.6093 36L77.1656 44L91.4335 64.543H92.234V7.5V0H102Z" fill="white"/>
<path d="M66.0305 44L60.4802 36H55V44H66.0305Z" fill="white"/>
<path d="M71.6093 36L77.1656 44H81L86.5 36H71.6093Z" fill="white"/>
<path d="M102 82H92.3941V88L92.234 96H102V82Z" fill="white"/>
<path d="M92.234 0H60.4802L65 7.5H92.234V0Z" fill="white"/>
<path d="M92.234 96L92.3941 88H73V96H92.234Z" fill="white"/>
<path d="M65 52V134H55.3941L29.0305 96L23.4802 88L10.7266 69.6172H9.92611V126.5V134H0V52H9.60591L34.6093 88L40.1656 96L54.4335 116.543H55.234V52H65Z" fill="white"/>
<path d="M29.0305 96L23.4802 88L19 92.5L16 96H29.0305Z" fill="white"/>
<path d="M34.6093 88L40.1656 96H46.5V88H34.6093Z" fill="white"/>
<path d="M0 52H9.60591V44V36H0V52Z" fill="white"/>
<path d="M9.92611 126.5V134H42L37 126.5H9.92611Z" fill="white"/>
<path d="M29.0305 36H9.60591V44H29.0305V36Z" fill="white"/>
</svg>
